<svg xmlns="http://www.w3.org/2000/svg" viewBox="0 0 1200 320"><defs><linearGradient id="b" x1="0" x2="1"><stop stop-color="#090b16"/><stop offset=".5" stop-color="#14102c"/><stop offset="1" stop-color="#2b0f34"/></linearGradient><radialGradient id="p"><stop stop-color="#ed35c5" stop-opacity=".65"/><stop offset="1" stop-color="#ed35c5" stop-opacity="0"/></radialGradient><linearGradient id="g" x1="0" x2="1"><stop stop-color="#02d9ff"/><stop offset=".5" stop-color="#7438ff"/><stop offset="1" stop-color="#ed35c5"/></linearGradient></defs><rect width="1200" height="320" fill="url(#b)"/><circle cx="930" cy="120" r="180" fill="url(#p)"/><g transform="translate(650 55)"><path d="M14 210c18-82 49-120 78-120s54 34 73 120" fill="#11121d"/><circle cx="92" cy="66" r="29" fill="#171927"/><path d="M130 210c15-95 51-139 85-139 36 0 69 44 87 139" fill="#14111f"/><circle cx="214" cy="43" r="33" fill="#191321"/><path d="M258 210c18-83 52-124 83-124 33 0 60 37 78 124" fill="#11131e"/><circle cx="340" cy="62" r="30" fill="#161724"/><path d="M382 210c13-69 41-105 69-105 29 0 52 35 67 105" fill="#17121d"/><circle cx="451" cy="85" r="25" fill="#1d1322"/><g stroke="url(#g)" fill="none" opacity=".8"><path d="M91 27c68-45 159-43 230 1" stroke-width="4"/><path d="M56 4c91-65 222-64 316 0" stroke-width="3" opacity=".6"/><path d="M195 3c50 28 89 77 104 133" stroke-width="4"/></g><g fill="#ba5cff"><circle cx="94" cy="26" r="6"/><circle cx="322" cy="28" r="6"/><circle cx="298" cy="135" r="6"/></g></g><path d="M610 270h520" stroke="#8b52ff" stroke-opacity=".25"/><g transform="translate(1010 42)"><circle cx="50" cy="50" r="44" fill="#160f25" stroke="#ed35c5" stroke-opacity=".6"/><path d="M23 51h54M50 24v54" stroke="#f08ee1" stroke-width="5" stroke-linecap="round"/><path d="M84 26c21 10 31 25 36 47M90 10c34 14 51 40 57 71" stroke="#9e59ff" fill="none" stroke-linecap="round"/></g></svg>